Coordinates
version=1
nRows=29
nColumns=24
inDegrees=yes

Units are S.I. units (second, meters, Newtons, ...)
Angles are in degrees.

endheader
time	pelvis_tilt	pelvis_list	pelvis_rotation	pelvis_tx	pelvis_ty	pelvis_tz	hip_flexion_r	hip_adduction_r	hip_rotation_r	knee_angle_r	ankle_angle_r	subtalar_angle_r	mtp_angle_r	hip_flexion_l	hip_adduction_l	hip_rotation_l	knee_angle_l	ankle_angle_l	subtalar_angle_l	mtp_angle_l	lumbar_extension	lumbar_bending	lumbar_rotation
      8.95500000	     -8.42115754	     -6.59314984	      7.27200273	     -0.24189499	     -0.03545973	      0.63648401	     29.51036017	      3.66644592	     -0.14069710	    -34.06509274	      3.98422209	     -2.06804419	     15.36097096	     16.15775790	     -4.09372718	      5.37370768	    -63.06857890	    -26.90287549	      5.08002655	     29.62319587	      8.90796580	     13.68103206	     -8.48991463
      8.96000000	     -8.35606762	     -6.69698897	      7.20866765	     -0.23504822	     -0.03422969	      0.63664886	     28.77003113	      3.88698508	     -0.13615490	    -33.63044765	      4.28957698	     -2.02583091	     15.15637651	     17.17940004	     -4.13222575	      5.19079177	    -64.12350240	    -25.98750355	      5.74089897	     31.20334747	      8.83341171	     13.83457523	     -8.30809287
      8.96500000	     -8.26237909	     -6.68823682	      7.09273216	     -0.22829408	     -0.03295098	      0.63680074	     27.99635560	      4.00046657	     -0.08007326	    -33.20547696	      4.61711181	     -1.83417791	     15.17848296	     18.14696892	     -4.07292400	      4.87968946	    -65.13399040	    -25.03159566	      6.11606105	     31.74003645	      8.68378639	     13.88727086	     -8.05351313
      8.97000000	     -8.20260596	     -6.74334520	      7.02735468	     -0.22146744	     -0.03169505	      0.63704724	     27.22977437	      4.18668631	     -0.02859937	    -32.71500799	      4.83112281	     -1.96461874	     14.96752569	     19.15627869	     -4.08736560	      4.65086189	    -66.07463635	    -24.14782957	      6.41750635	     32.18165106	      8.61626709	     13.96446123	     -7.89834772
      8.97500000	     -8.14363751	     -6.81273608	      6.94632752	     -0.21461358	     -0.03045052	      0.63728478	     26.44797918	      4.39289746	      0.06386645	    -32.20215869	      5.08793250	     -2.00233446	     14.62410690	     20.16148769	     -4.13831957	      4.36149121	    -66.95087098	    -23.42699565	      6.31546208	     32.21326789	      8.55764833	     14.06147645	     -7.74248650
      8.98000000	     -8.06852012	     -6.85571905	      6.85878641	     -0.20780083	     -0.02920098	      0.63750488	     25.64830078	      4.55787112	      0.10968920	    -31.67703071	      5.31332833	     -1.98922850	     14.54392406	     21.12804090	     -4.17317458	      4.04552928	    -67.72393037	    -22.92637006	      5.89832348	     32.26200050	      8.46794960	     14.13484668	     -7.54338201
      8.98500000	     -8.02680140	     -6.88635849	      6.72217966	     -0.20086982	     -0.02800830	      0.63782737	     24.86806993	      4.75810828	      0.29458069	    -31.15394517	      5.56422074	     -2.08860464	     13.98720839	     22.10990357	     -4.22825570	      3.62336211	    -68.49678082	    -22.09513213	      5.31730201	     30.85570892	      8.42614208	     14.18614079	     -7.31774089
      8.99000000	     -7.97327388	     -6.90503309	      6.64163612	     -0.19403454	     -0.02679086	      0.63811330	     24.07448305	      4.91800517	      0.41611327	    -30.60017826	      5.68888852	     -2.27925955	     13.81249838	     23.05976820	     -4.25402672	      3.27354996	    -69.09600090	    -21.74493794	      4.40177679	     30.44066236	      8.36574275	     14.21206904	     -7.13891113
      8.99500000	     -7.92154046	     -6.89017041	      6.47181106	     -0.18711997	     -0.02565515	      0.63846878	     23.27721908	      5.07828593	      0.68043633	    -30.07024544	      5.95402207	     -2.28042397	     13.45703741	     23.98083167	     -4.29592236	      2.78384181	    -69.70240306	    -20.93884252	      3.54612231	     28.55277304	      8.29394717	     14.21743892	     -6.87686799
      9.00000000	     -7.88508360	     -6.86081261	      6.32226319	     -0.18022428	     -0.02452668	      0.63886092	     22.49580727	      5.21966063	      0.93415931	    -29.53095582	      6.12790702	     -2.42947874	     13.13272375	     24.88925665	     -4.32362378	      2.31939571	    -70.16714009	    -20.34881949	      2.53616896	     27.11212181	      8.23466838	     14.19179795	     -6.63346562
      9.00500000	     -7.85457503	     -6.79772532	      6.15480657	     -0.17329501	     -0.02340749	      0.63928131	     21.71167652	      5.33111900	      1.22879468	    -28.98531206	      6.28537857	     -2.59743759	     12.77691512	     25.76347183	     -4.33255027	      1.82687161	    -70.52828868	    -19.73206621	      1.52040594	     25.54859541	      8.18017575	     14.12798545	     -6.37065745
      9.01000000	     -7.83017840	     -6.71215820	      5.97902303	     -0.16641956	     -0.02234507	      0.63973634	     20.94048072	      5.41955200	      1.54727749	    -28.45032371	      6.44342689	     -2.77735832	     12.39566693	     26.62295960	     -4.33124639	      1.32326622	    -70.80824229	    -19.07694758	      0.54814448	     23.90227389	      8.11459545	     14.03395519	     -6.09441400
      9.01500000	     -7.83047836	     -6.64160664	      5.86287710	     -0.15962785	     -0.02132978	      0.64019338	     20.20355913	      5.50260596	      1.81260713	    -27.90184867	      6.48300982	     -3.11395660	     12.17826223	     27.49436026	     -4.31546638	      0.94052233	    -70.93448194	    -18.78850560	     -0.45915484	     23.37057967	      8.07570534	     13.93319554	     -5.85647131
      9.02000000	     -7.78670020	     -6.48219894	      5.61992488	     -0.15273700	     -0.02034849	      0.64070170	     19.41187388	      5.52241368	      2.22020976	    -27.40028721	      6.77033730	     -3.11981562	     11.63597078	     28.26430874	     -4.29173944	      0.33507061	    -71.09479344	    -17.69498930	     -1.13090310	     20.62178925	      7.96090982	     13.76852745	     -5.53086151
      9.02500000	     -7.80966113	     -6.29675545	      5.36363728	     -0.14592081	     -0.01942580	      0.64133531	     18.69968404	      5.51799978	      2.66624631	    -26.89059390	      6.91218459	     -3.30034881	     11.34254433	     29.06211901	     -4.24417119	     -0.20467875	    -71.06435426	    -17.11546796	     -1.79814198	     19.48756242	      7.89891011	     13.55680552	     -5.15944945
      9.03000000	     -7.80589349	     -6.13989517	      5.13820168	     -0.13914664	     -0.01855379	      0.64189621	     17.96132077	      5.51883122	      3.04866694	    -26.37257905	      7.06689121	     -3.43440365	     10.99359041	     29.82724651	     -4.21861571	     -0.69710025	    -70.97878183	    -16.46519997	     -2.37438750	     18.21880976	      7.81289582	     13.37200810	     -4.83014800
      9.03500000	     -7.85651379	     -5.97329415	      4.98039149	     -0.13242299	     -0.01777038	      0.64242376	     17.28343813	      5.47828290	      3.35457434	    -25.84027962	      7.13161403	     -3.70323637	     10.79940763	     30.63509472	     -4.13467355	     -1.06534209	    -70.76445180	    -16.12164491	     -2.92815901	     17.83625953	      7.79340915	     13.14940303	     -4.58454585
      9.04000000	     -7.78935683	     -5.82712359	      4.72885786	     -0.12567606	     -0.01698788	      0.64295728	     16.48026170	      5.47697602	      3.74340342	    -25.33306584	      7.37670038	     -3.66702057	     10.24214033	     31.29035258	     -4.14950359	     -1.54828216	    -70.57104438	    -15.20369595	     -3.17832628	     16.09153656	      7.62735565	     12.98973286	     -4.23513304
      9.04500000	     -7.89470295	     -5.60362163	      4.48861763	     -0.11900020	     -0.01640375	      0.64358041	     15.88374819	      5.37003421	      4.08361092	    -24.84308618	      7.48097405	     -3.84260609	     10.10876949	     32.08761121	     -4.05146486	     -1.94781950	    -70.20178092	    -14.80035853	     -3.42092359	     15.89009348	      7.63481885	     12.70474518	     -3.90645794
      9.05000000	     -7.91613834	     -5.41437486	      4.19868635	     -0.11232767	     -0.01581199	      0.64422399	     15.19067242	      5.31337213	      4.50191576	    -24.33765286	      7.59742360	     -3.95775449	      9.89982795	     32.76815558	     -4.03717381	     -2.37757076	    -69.77686222	    -14.29819876	     -3.56143085	     15.51703172	      7.54041711	     12.47705984	     -3.52537436
      9.05500000	     -7.93151418	     -5.22716524	      3.93221148	     -0.10567570	     -0.01529216	      0.64481568	     14.49654344	      5.23795939	      4.86693869	    -23.83729938	      7.73199540	     -4.03816140	      9.65228268	     33.42559938	     -4.01081990	     -2.76242653	    -69.29037098	    -13.74260818	     -3.60470543	     15.03836869	      7.44395017	     12.24806483	     -3.17503208
      9.06000000	     -7.95575202	     -5.05636552	      3.67639948	     -0.09904307	     -0.01487053	      0.64534880	     13.81796513	      5.16095491	      5.20219967	    -23.34027657	      7.87556788	     -4.07849715	      9.43298822	     34.07764594	     -3.99319324	     -3.11112434	    -68.74187615	    -13.19439431	     -3.59679319	     14.58292313	      7.35989284	     12.03485503	     -2.85549568
      9.06500000	     -7.97575183	     -4.89561924	      3.41824855	     -0.09243154	     -0.01452073	      0.64585264	     13.14126865	      5.08380555	      5.52278782	    -22.84708023	      8.01154893	     -4.10894329	      9.23462030	     34.70267374	     -3.98828208	     -3.44133987	    -68.12517471	    -12.65435003	     -3.55464861	     14.14033029	      7.26889185	     11.83318899	     -2.53821462
      9.07000000	     -7.99563533	     -4.73977824	      3.16209611	     -0.08583304	     -0.01424111	      0.64633825	     12.47058581	      5.00132885	      5.82591518	    -22.35820688	      8.13845742	     -4.13620723	      9.06071882	     35.30304282	     -3.98837711	     -3.74898707	    -67.43859788	    -12.12851849	     -3.48404227	     13.71573988	      7.17891259	     11.63641995	     -2.22944877
      9.07500000	     -7.96630576	     -4.63151871	      2.89218579	     -0.07927852	     -0.01401106	      0.64676277	     11.74747130	      4.96595300	      6.18154479	    -21.86421095	      8.27819842	     -4.13313423	      8.83894433	     35.84056633	     -4.04919175	     -4.05414284	    -66.71554859	    -11.55488018	     -3.44341818	     13.02750259	      7.02436821	     11.50566512	     -1.90355892
      9.08000000	     -8.00488576	     -4.48225492	      2.64860090	     -0.07268900	     -0.01389655	      0.64716058	     11.10783245	      4.86377318	      6.44678092	    -21.38880260	      8.40106149	     -4.14264695	      8.71139513	     36.40942752	     -4.04458456	     -4.31305019	    -65.89668182	    -11.03690857	     -3.32093245	     12.58531131	      6.95887465	     11.31461991	     -1.63507028
      9.08500000	     -8.09096455	     -4.36522661	      2.49460953	     -0.06610614	     -0.01391738	      0.64742093	     10.51669016	      4.76505552	      6.61856124	    -20.90047483	      8.50638379	     -4.16669114	      8.66807230	     37.02489673	     -4.00411404	     -4.44618769	    -65.00557694	    -10.68140143	     -3.24254751	     12.48431472	      6.96993871	     11.13648229	     -1.50901123
      9.09000000	     -8.07325686	     -4.21313637	      2.17288996	     -0.05954910	     -0.01384277	      0.64790065	      9.82863799	      4.66886361	      6.93370550	    -20.43244170	      8.57451273	     -4.22855260	      8.56541966	     37.45331606	     -4.06296825	     -4.75383446	    -64.03711267	    -10.20445759	     -3.11033368	     12.17325416	      6.81572428	     10.95877549	     -1.11377856
      9.09500000	     -8.01128757	     -4.12267435	      1.92326301	     -0.05298331	     -0.01381885	      0.64816995	      9.06498975	      4.61282032	      7.27402190	    -19.91824970	      8.67873444	     -4.25956006	      8.40219282	     37.83588554	     -4.12201586	     -4.96044479	    -63.04371684	     -9.68669060	     -3.04836647	     11.50048812	      6.63521910	     10.85285314	     -0.83534149
